<svg width="48" height="48" viewBox="0 0 48 48" fill="none" xmlns="http://www.w3.org/2000/svg">
<rect width="48" height="48" rx="6" fill="black"/>
<path d="M30.1643 33.1575C29.0658 34.2656 27.8665 34.0907 26.712 33.5657C25.4903 33.0291 24.3695 33.0058 23.0805 33.5657C21.4665 34.289 20.6146 34.079 19.6507 33.1575C14.1809 27.2899 14.988 18.3543 21.1975 18.0277C22.7106 18.1094 23.7642 18.8909 24.6497 18.9609C25.9723 18.6809 27.2388 17.8761 28.6511 17.981C30.3436 18.121 31.6214 18.8209 32.462 20.0808C28.9649 22.2622 29.7944 27.0566 33 28.3981C32.3611 30.1478 31.5317 31.886 30.153 33.1691L30.1643 33.1575ZM24.5376 17.9577C24.3695 15.3564 26.3982 13.21 28.7296 13C29.0546 16.0096 26.1068 18.2493 24.5376 17.9577Z" fill="white"/>
</svg>
