<svg xmlns="http://www.w3.org/2000/svg" width="80" height="80" viewBox="0 0 80 80"><defs><style>.cls-1,.cls-3{fill:none;}.cls-1{stroke:#ff9151;stroke-linejoin:round;}.cls-1,.cls-2,.cls-3{stroke-width:2px;}.cls-2{fill:#fff;}.cls-2,.cls-3{stroke:#98a8b0;stroke-miterlimit:10;}</style></defs><title>icons-features-outlines-finalPP</title><g id="Layer_1" data-name="Layer 1"><path class="cls-1" d="M2.58,32.8c3.1-4.12,13.67-6.43,15.68-1.09,2.53,6.72-8.76,9.65-9.35,6.79-.92-4.5,16.81-4.6,14.87,8-1.47,9.52-13.93,12.13-22,10"/><path class="cls-1" d="M32.27,36.77c-1-1-3.74-.67-4.81,2.16-1.39,3.67.43,5.39,2.22,5.39,4,0,5.54-6.9,4.89-6.9s-1.66,6,1.36,5.74c3.77-.28,10.55-16.88,6.39-16.88s-6.43,16.25-.24,16.18,11.37-16.63,7.35-16.63c-3.45,0-5.59,14.57-1.07,14.34,2-.1,2.85-3.88,2.85-3.88a3.06,3.06,0,0,0,3.05-.65c-.94,1.73-.94,5.59,2,5.59,4.28,0,5.2-6.2,2.72-7.86-2.13-1.42-4.18,1.1-2.16,2.44,1.51,1,6,.18,6,.18"/><path class="cls-1" d="M10.53,49.43c0-.19.71-9.38,1.87-17.05"/><path class="cls-1" d="M26.94,49.27S54,44.56,72,44.49"/><polyline class="cls-2" points="45 65 78 65 78 15 50 15"/><path class="cls-2" d="M44.94,18,39.26,66a2.12,2.12,0,0,0,1.68,2.35l1.14.23a2.12,2.12,0,0,0,2.45-1.49L56,22"/><path class="cls-3" d="M50.5,15C43,15,43,24,51,24c7,0,7-5,0-5"/></g></svg>
