<?xml version="1.0" standalone="no"?>
<!DOCTYPE svg PUBLIC "-//W3C//DTD SVG 20010904//EN"
 "http://www.w3.org/TR/2001/REC-SVG-20010904/DTD/svg10.dtd">
<svg version="1.0" xmlns="http://www.w3.org/2000/svg"
 width="480.000000pt" height="480.000000pt" viewBox="0 0 480.000000 480.000000"
 preserveAspectRatio="xMidYMid meet">

<g transform="translate(0.000000,480.000000) scale(0.100000,-0.100000)"
fill="#000000" stroke="none">
<path d="M2216 4290 c-577 -66 -1060 -354 -1383 -822 -156 -227 -259 -487
-310 -783 -25 -148 -23 -452 5 -605 142 -785 724 -1384 1502 -1545 156 -32
421 -44 580 -26 734 85 1349 577 1588 1273 134 387 136 827 6 1218 -220 660
-794 1152 -1484 1271 -133 23 -387 32 -504 19z"/>
</g>
</svg>
