<svg width="48" height="48" viewBox="0 0 48 48" fill="none" xmlns="http://www.w3.org/2000/svg">
<rect width="48" height="48" rx="6" fill="#3B5998"/>
<path d="M24.5011 14.0854C18.749 14.0854 14.0854 18.749 14.0854 24.5011C14.0854 29.699 17.8938 34.0073 22.874 34.7917V27.5125H20.2282V24.5011H22.874V22.2063C22.874 19.5938 24.4292 18.1532 26.8073 18.1532C27.9469 18.1532 29.1407 18.3563 29.1407 18.3563V20.9177H27.824C26.5323 20.9177 26.1282 21.7219 26.1282 22.5459V24.499H29.0146L28.5532 27.5105H26.1282V34.7896C31.1084 34.0094 34.9167 29.7 34.9167 24.5011C34.9167 18.749 30.2532 14.0854 24.5011 14.0854Z" fill="white"/>
</svg>
