<svg width="48" height="48" viewBox="0 0 48 48" fill="none" xmlns="http://www.w3.org/2000/svg">
<rect width="48" height="48" rx="6" fill="#E72734"/>
<path d="M34.3499 22.5771C34.478 23.2636 34.5478 23.9813 34.5478 24.7302C34.5478 30.5886 30.627 34.7542 24.7051 34.7542C23.3584 34.7546 22.0248 34.4896 20.7805 33.9745C19.5362 33.4593 18.4057 32.704 17.4534 31.7517C16.5011 30.7995 15.7458 29.6689 15.2306 28.4246C14.7155 27.1803 14.4505 25.8467 14.4509 24.5C14.4505 23.1533 14.7155 21.8197 15.2306 20.5754C15.7458 19.3312 16.5011 18.2006 17.4534 17.2483C18.4057 16.296 19.5362 15.5407 20.7805 15.0256C22.0248 14.5104 23.3584 14.2454 24.7051 14.2459C27.4738 14.2459 29.7874 15.2646 31.5624 16.9188L28.6718 19.8094V19.8021C27.5957 18.7771 26.2301 18.2511 24.7051 18.2511C21.3218 18.2511 18.5718 21.1094 18.5718 24.4938C18.5718 27.8771 21.3218 30.7417 24.7051 30.7417C27.7749 30.7417 29.8645 28.9865 30.2936 26.5761H24.7051V22.5771H34.3509H34.3499Z" fill="white"/>
</svg>
