<svg id="Layer_1" data-name="Layer 1" xmlns="http://www.w3.org/2000/svg" viewBox="0 0 98.33 122.88"><defs><style>.cls-1{fill-rule:evenodd;}</style></defs><title>life-insurance</title><path class="cls-1" d="M23.31,52.3a8.15,8.15,0,1,1-8.15,8.15,8.15,8.15,0,0,1,8.15-8.15ZM51.78,3.91A50.52,50.52,0,0,1,98.33,42.77h0l-6.51,7.67-6.26-7.67h-.85l-6.54,7.71-6.29-7.71H70.32l-6.51,7.67-6.25-7.67h-.83v.12c0,1.81-1.53,3.37-3.76,4.11V57.93a12.72,12.72,0,0,0-6.54,0V46.7c-1.8-.82-3-2.22-3-3.81v-.12H40.81l-6.26,7.67-6.5-7.67H26.49L20.2,50.48l-6.54-7.71h-.85L6.55,50.44,0,42.77H0A50.55,50.55,0,0,1,46,3.93L49,0l2.74,3.91Zm16,69.16a3.5,3.5,0,0,1,2.35-1.41v0a43.83,43.83,0,0,1,16.35,0v0A3.45,3.45,0,0,1,88.67,73a46.21,46.21,0,0,1,5.23,9.36A53.18,53.18,0,0,1,97.07,93a3.53,3.53,0,0,1-6.94,1.3,46.06,46.06,0,0,0-2.75-9.23c-.18-.42-.36-.83-.55-1.24l5.32,25.22H86.78V119.4A3.65,3.65,0,0,1,83,122.88h0a3.64,3.64,0,0,1-3.76-3.48V109.07h-1.8V119.4a3.65,3.65,0,0,1-3.77,3.48h0a3.64,3.64,0,0,1-3.76-3.48V109.07H64.54L70,83.18c-.31.63-.6,1.28-.88,2a45.67,45.67,0,0,0-2.75,9.23,3.52,3.52,0,0,1-2.86,2.82,2.83,2.83,0,0,1-4.34-2,36.81,36.81,0,0,0-1.86-7.54c-.2-.55-.41-1.09-.64-1.62v30.35a2.93,2.93,0,0,1-3,2.86h0a2.93,2.93,0,0,1-3-2.86V100.83H48.82v15.53a2.93,2.93,0,0,1-3,2.86h0a2.94,2.94,0,0,1-3-2.86V88a36,36,0,0,0-1.38,5.09l0,.21A3.45,3.45,0,0,1,41,95.52a2.84,2.84,0,0,1-5,1,3.41,3.41,0,0,1-1.39-2.31,46.28,46.28,0,0,0-2.31-9.36c-.21-.57-.42-1.12-.64-1.66V99.88h0V119.4a3.65,3.65,0,0,1-3.77,3.48h0a3.65,3.65,0,0,1-3.77-3.48V101H22.89V119.4a3.65,3.65,0,0,1-3.77,3.48h0a3.64,3.64,0,0,1-3.76-3.48V82.32c-.35.8-.69,1.63-1,2.49a45.24,45.24,0,0,0-2.31,9.37,3.44,3.44,0,1,1-6.82-1A52.61,52.61,0,0,1,7.89,82.47a45.68,45.68,0,0,1,4.76-9.57,3.48,3.48,0,0,1,2.7-1.55v-.11c4.45-1.09,12.19-1,16.37.14v.07A3.44,3.44,0,0,1,34.05,73a46.44,46.44,0,0,1,4.77,9.57l0,.12a35.3,35.3,0,0,1,2.6-4.7A2.8,2.8,0,0,1,43,76.8c1.37-1,12.25-.72,13.63-.13A2.84,2.84,0,0,1,58.8,78,36.46,36.46,0,0,1,62,84c.2-.52.4-1,.61-1.53a45.68,45.68,0,0,1,5.23-9.36ZM78.13,52.3A8.15,8.15,0,1,1,70,60.45a8.14,8.14,0,0,1,8.15-8.15Zm-28.3,9.09A6.65,6.65,0,1,1,43.18,68a6.65,6.65,0,0,1,6.65-6.65Z"/></svg>