<?xml version="1.0" standalone="no"?>
<!DOCTYPE svg PUBLIC "-//W3C//DTD SVG 20010904//EN"
 "http://www.w3.org/TR/2001/REC-SVG-20010904/DTD/svg10.dtd">
<svg version="1.0" xmlns="http://www.w3.org/2000/svg"
 width="1360.000000pt" height="1360.000000pt" viewBox="0 0 1360.000000 1360.000000"
 preserveAspectRatio="xMidYMid meet">

<g transform="translate(0.000000,1360.000000) scale(0.100000,-0.100000)"
fill="#000000" stroke="none">
<path d="M1360 8995 l0 -945 163 0 c245 0 324 -20 400 -99 121 -126 127 -315
14 -438 -88 -96 -147 -113 -394 -113 l-183 0 0 -164 0 -163 203 -5 202 -5 60
-30 c63 -32 131 -98 160 -153 22 -42 31 -163 16 -216 -14 -52 -73 -133 -120
-165 -76 -51 -85 -52 -308 -57 l-213 -4 0 -199 c0 -194 0 -199 21 -199 11 0
17 5 14 10 -3 6 -1 10 4 10 6 0 11 -6 11 -12 0 -9 4 -8 11 2 8 11 12 12 16 3
2 -8 22 -13 45 -13 55 0 44 -8 -15 -11 -35 -2 -47 -7 -47 -18 -1 -14 -3 -13
-14 2 -7 9 -21 17 -30 17 -14 0 -16 -13 -16 -89 0 -62 4 -91 13 -94 9 -4 9 -6
0 -6 -10 -1 -13 -145 -13 -683 l0 -683 104 3 c88 3 115 0 168 -18 298 -105
482 -330 495 -611 5 -93 4 -101 -42 -245 -26 -82 -53 -162 -60 -179 -53 -124
-85 -189 -136 -281 -27 -50 -150 -227 -194 -280 -113 -136 -351 -368 -367
-358 -5 3 6 18 25 32 18 15 32 33 30 39 -3 7 12 22 31 34 20 11 34 25 31 29
-8 14 5 38 31 54 22 15 23 15 17 -1 -5 -14 0 -12 20 6 15 14 27 25 27 26 0 1
-12 1 -27 -2 -26 -3 -27 -3 -5 6 12 6 22 15 22 22 0 6 6 9 13 6 18 -7 156 131
140 141 -8 5 -9 13 -3 22 9 13 10 13 10 0 1 -20 60 45 60 66 0 8 4 13 8 10 13
-8 45 53 38 71 -4 9 2 25 15 39 l21 22 -21 7 c-24 7 -26 16 -9 33 8 8 3 10
-24 6 -30 -5 -36 -3 -41 15 -3 11 1 25 9 32 8 6 14 18 14 25 0 8 4 14 9 14 12
0 71 56 71 67 0 4 -4 4 -8 -2 -20 -28 -42 -37 -57 -25 -8 7 -15 8 -15 2 0 -5
-14 -12 -31 -16 -25 -5 -29 -9 -20 -19 8 -11 3 -21 -24 -45 -19 -18 -39 -32
-45 -32 -6 0 -13 -7 -17 -16 -3 -8 -12 -13 -19 -10 -8 3 -11 0 -8 -8 5 -12
-50 -46 -73 -46 -10 0 -53 -54 -53 -66 0 -16 -33 -42 -46 -37 -8 3 -23 -2 -33
-11 -15 -13 -30 -15 -102 -7 -65 6 -90 5 -112 -6 -15 -8 -25 -18 -21 -24 3 -6
-3 -20 -14 -32 -11 -12 -25 -34 -31 -49 -9 -25 -8 -28 14 -34 14 -4 32 -1 40
6 8 7 22 9 31 6 9 -4 28 1 41 9 13 9 28 13 33 10 5 -3 17 3 27 15 10 11 22 20
28 20 5 0 38 18 73 40 34 22 67 40 71 40 5 0 14 7 21 15 7 8 18 15 24 15 6 -1
0 -10 -13 -20 -25 -21 -23 -50 4 -50 18 0 20 17 3 22 -9 3 -9 6 0 12 7 4 12 2
12 -3 0 -6 7 -11 15 -11 8 0 15 4 15 10 0 5 16 9 36 8 32 -1 34 -3 19 -17 -13
-13 -17 -13 -24 -3 -7 11 -11 10 -25 -3 -9 -9 -16 -20 -16 -24 0 -4 -10 -12
-22 -18 -15 -6 -18 -12 -10 -17 7 -4 12 -2 12 3 0 6 10 11 23 11 22 0 22 0 -3
-20 -14 -11 -30 -20 -36 -20 -14 0 -38 -46 -30 -58 4 -6 -20 -28 -51 -48 -32
-21 -60 -39 -63 -41 -2 -2 2 -8 10 -13 9 -6 10 -10 3 -10 -6 0 -15 5 -18 10
-3 6 -17 -3 -31 -19 -17 -21 -37 -31 -70 -36 -48 -7 -68 0 -44 15 8 5 11 13 6
17 -5 4 -11 2 -13 -4 -3 -7 -15 -13 -29 -13 -14 0 -30 -10 -40 -25 -19 -29
-39 -24 -21 6 10 16 9 21 -3 29 -8 5 -18 6 -23 3 -19 -12 -84 -25 -132 -27
-80 -4 -155 -42 -155 -78 0 -10 -7 -18 -15 -18 -8 0 -19 -9 -25 -20 -6 -11
-16 -20 -23 -20 -7 0 -17 -15 -22 -32 -8 -26 -16 -33 -34 -33 -20 0 -26 -7
-34 -35 -5 -19 -15 -39 -23 -43 -8 -4 -14 -21 -14 -36 0 -27 -15 -41 -43 -41
-8 0 -7 4 2 9 14 9 7 31 -10 31 -6 0 -17 -16 -25 -35 -8 -20 -21 -38 -28 -41
-8 -3 -16 -19 -20 -36 -5 -23 -10 -29 -23 -24 -11 5 -30 -7 -60 -36 -24 -23
-43 -37 -43 -30 0 25 -21 11 -26 -17 -4 -20 -11 -28 -20 -24 -9 3 -14 -2 -14
-16 0 -18 -4 -20 -24 -15 -18 4 -27 1 -36 -15 -14 -27 -40 -27 -47 -1 -3 11
-10 20 -15 20 -6 0 -7 -8 -3 -17 3 -10 9 -31 12 -47 6 -26 4 -29 -16 -23 -20
5 -22 3 -16 -24 8 -36 -11 -39 -27 -4 -19 42 -33 31 -28 -22 1 -13 -4 -23 -11
-23 -9 0 -8 -4 1 -15 7 -8 11 -16 9 -16 -8 -3 -55 -10 -75 -12 -21 -2 -21 -6
-23 -229 l-2 -227 42 14 c52 19 52 19 44 -4 -5 -17 1 -22 33 -30 22 -6 59 -8
84 -5 49 7 111 -16 106 -39 -2 -7 25 -39 60 -72 34 -33 62 -67 62 -76 0 -10 7
-16 18 -15 12 1 16 -5 14 -19 -2 -16 -1 -17 7 -6 7 12 17 6 49 -27 22 -23 44
-42 48 -42 4 0 16 -9 28 -21 12 -12 48 -38 81 -60 103 -66 153 -103 197 -145
24 -22 53 -46 66 -53 12 -7 20 -17 16 -23 -4 -6 -3 -8 3 -5 6 4 21 -5 33 -18
13 -14 27 -25 32 -25 5 0 27 -18 49 -40 22 -22 45 -40 50 -40 7 0 69 -27 169
-75 14 -6 61 -20 105 -29 44 -10 88 -22 98 -27 10 -6 21 -8 25 -5 5 3 26 1 47
-4 27 -6 44 -5 53 2 10 9 21 8 46 -6 29 -15 35 -15 68 -2 37 16 59 36 39 36
-19 0 -12 17 9 23 17 4 20 14 20 67 0 34 -5 70 -11 82 -12 23 -2 40 11 18 16
-26 33 2 20 35 l-11 28 26 -17 c29 -19 31 -16 9 25 -8 17 -13 38 -11 47 4 13
5 11 6 -4 1 -17 18 -34 35 -34 1 0 0 14 -2 32 -3 23 0 35 14 45 15 11 17 17 6
33 -16 27 -15 43 3 36 20 -7 19 22 0 48 -26 34 -18 53 10 26 20 -19 25 -20 25
-7 0 8 -6 22 -14 29 -17 17 -30 58 -19 58 5 0 14 -5 20 -11 6 -6 4 9 -5 35
-14 39 -15 49 -4 67 11 17 11 24 -1 37 -7 10 -14 34 -14 54 -1 22 -9 45 -20
58 -11 11 -26 40 -33 63 -8 23 -19 49 -26 57 -7 8 -18 26 -24 40 -5 14 -24 45
-40 70 -16 25 -34 56 -40 70 -5 14 -15 33 -20 42 -6 10 -10 27 -10 38 0 12 -5
18 -10 15 -6 -3 -13 1 -16 9 -9 22 -26 8 -19 -15 12 -36 -11 -19 -30 24 -17
36 -24 42 -48 39 -22 -2 -27 1 -27 20 0 21 -32 52 -54 53 -5 0 -17 18 -28 40
-10 22 -16 31 -13 20 4 -16 0 -20 -20 -20 -26 0 -33 9 -14 20 7 5 5 13 -6 26
-15 16 -22 46 -24 102 -1 14 -5 16 -20 8 -17 -9 -18 -8 -14 12 3 12 9 27 13
32 3 6 7 24 7 40 1 17 -1 24 -4 18 -2 -7 -9 -13 -15 -13 -13 0 0 78 18 107 16
25 18 37 6 29 -5 -3 -7 12 -5 33 2 27 -3 45 -17 61 -39 45 -19 40 60 -16 49
-34 80 -50 80 -42 0 15 46 45 55 36 10 -9 65 49 65 69 0 10 -12 43 -28 73 -30
60 -40 110 -22 110 6 0 9 4 5 10 -3 5 3 18 15 30 11 11 20 26 20 33 0 15 45
57 61 57 6 0 8 7 5 16 -5 12 -2 15 9 10 9 -3 13 -2 10 4 -6 9 29 50 43 50 4 0
12 10 17 22 10 22 59 56 83 57 7 1 23 10 35 21 12 12 32 23 44 26 13 4 23 10
23 15 0 5 6 9 13 9 7 0 24 10 37 23 14 12 29 22 34 22 11 0 76 121 76 141 0 8
4 14 9 14 5 0 14 14 21 31 7 17 20 38 29 47 12 12 15 33 13 93 -2 69 0 82 23
115 14 20 25 43 25 50 0 8 8 14 18 15 15 0 14 1 -3 8 -16 7 -14 9 14 14 19 4
2274 7 5012 7 l4979 0 0 3180 0 3180 -5430 0 -5430 0 0 -945z m1154 -1112
c-12 -64 35 -99 98 -74 13 5 37 13 53 17 l30 8 -40 5 c-31 5 -41 11 -43 28 -2
13 4 26 16 32 27 14 488 9 503 -6 14 -14 4 -32 -26 -43 -13 -5 -25 -19 -27
-32 -2 -17 -11 -24 -30 -26 -24 -3 -28 0 -28 22 0 16 -6 26 -15 26 -9 0 -15
-9 -15 -24 0 -16 -7 -26 -22 -30 -42 -11 -109 -6 -133 10 -22 14 -30 14 -87 1
-35 -9 -104 -18 -154 -22 -108 -8 -116 -2 -122 86 -5 69 12 105 35 73 8 -11
11 -30 7 -51z m1635 43 c18 -16 43 -25 78 -29 51 -6 54 -5 68 23 19 38 31 38
50 1 13 -25 20 -29 47 -26 95 12 158 14 163 5 5 -7 -28 -77 -51 -108 -1 -2
-92 -5 -201 -7 -109 -2 -210 -6 -224 -10 -21 -5 -30 -2 -43 16 -27 40 -20 77
23 120 45 45 56 47 90 15z m-873 -9 c20 -22 23 -23 139 -14 66 5 134 6 153 2
34 -6 34 -7 28 -46 -5 -31 -3 -41 10 -46 21 -8 47 25 40 51 -10 38 11 46 114
46 76 0 100 -3 110 -15 11 -13 8 -21 -18 -48 -18 -18 -32 -38 -32 -44 0 -15
-197 -29 -310 -22 -69 4 -102 2 -122 -8 -15 -7 -47 -16 -71 -19 -39 -6 -46 -3
-64 20 -21 27 -41 135 -28 155 10 17 30 13 51 -12z m662 -129 c3 -13 -3 -18
-20 -18 -31 0 -52 15 -43 29 11 18 59 9 63 -11z m-1229 -147 c10 -7 12 -18 5
-47 -4 -22 -7 -51 -6 -65 l3 -26 -113 -1 c-74 0 -116 4 -120 12 -11 17 -9 75
3 98 10 18 17 20 63 15 36 -4 56 -2 70 8 22 17 73 20 95 6z m636 -11 c3 -5 -1
-23 -10 -40 -14 -27 -14 -32 1 -55 15 -23 15 -25 0 -31 -9 -3 -22 -4 -29 -1
-7 3 -36 1 -65 -4 -38 -7 -59 -6 -84 4 -33 14 -90 12 -275 -9 -85 -9 -94 -1
-79 74 l12 57 222 1 c123 1 226 4 229 8 10 10 71 7 78 -4z m1164 -4 c8 -10 9
-21 1 -42 -8 -21 -8 -31 2 -40 19 -19 62 4 66 36 2 14 11 31 20 38 17 13 108
17 115 5 3 -5 -3 -33 -13 -63 l-17 -55 -144 -1 c-79 -1 -277 -1 -439 -1 -162
0 -374 -1 -472 -2 -207 -3 -223 1 -213 57 11 60 23 66 127 64 51 -2 104 -2
118 -2 14 0 191 2 393 4 203 3 371 7 374 10 12 12 71 6 82 -8z m4192 -406 c18
-10 19 -24 19 -256 l0 -244 -27 -11 c-36 -13 -70 -4 -86 24 -19 34 -8 474 13
487 20 13 57 12 81 0z m1680 -7 c11 -12 15 -68 17 -235 2 -121 1 -231 -2 -244
-8 -29 -46 -41 -85 -25 -26 12 -29 17 -35 88 -8 99 -7 294 3 361 4 30 14 58
22 63 23 14 65 10 80 -8z m201 -6 c4 -7 8 -116 8 -244 0 -228 0 -232 -22 -247
-27 -19 -68 -21 -91 -3 -15 11 -18 38 -21 217 -5 254 -1 282 39 291 36 8 77 2
87 -14z m-1674 1 c31 -31 1 -68 -57 -68 -44 0 -61 10 -61 34 0 33 19 46 65 46
23 0 46 -5 53 -12z m1868 -13 c10 -40 -11 -56 -70 -53 -45 3 -51 6 -54 26 -5
37 15 52 69 52 44 0 49 -3 55 -25z m-3006 -10 c21 -11 32 -27 40 -58 21 -80
64 -209 76 -225 10 -14 14 -10 24 28 7 25 15 50 20 55 4 6 19 46 34 90 41 119
46 125 111 125 42 0 60 -5 75 -20 19 -19 20 -33 20 -224 0 -112 -3 -211 -6
-220 -3 -8 -21 -20 -40 -26 -29 -10 -39 -9 -59 4 -23 15 -24 22 -27 122 l-3
106 -45 -107 c-46 -112 -72 -142 -110 -130 -26 8 -45 37 -68 106 -11 29 -28
69 -40 88 l-20 33 5 -98 c6 -115 -1 -129 -69 -129 -63 0 -65 6 -64 250 1 202
2 218 20 231 26 18 89 18 126 -1z m2438 9 c27 -8 39 -46 23 -80 -10 -23 -15
-24 -109 -24 -97 0 -122 -8 -122 -36 0 -32 31 -44 116 -44 l84 0 0 -44 c0 -60
-15 -70 -91 -62 -76 8 -99 -3 -99 -48 0 -50 16 -58 108 -50 73 6 81 5 101 -15
26 -26 27 -57 4 -70 -22 -11 -314 -19 -330 -8 -10 6 -13 65 -13 238 0 229 0
230 23 239 25 10 270 13 305 4z m-1725 -141 c50 -30 77 -77 77 -137 0 -29 -5
-57 -12 -64 -8 -8 -45 -12 -101 -12 -79 0 -88 -2 -85 -17 3 -15 15 -18 68 -21
103 -4 112 -7 108 -45 -2 -27 -9 -34 -38 -44 -49 -17 -141 -16 -182 2 -83 34
-124 129 -99 224 25 95 90 144 179 137 29 -3 67 -13 85 -23z m702 16 c52 -14
85 -45 85 -80 0 -48 -23 -56 -93 -31 -72 26 -87 27 -87 8 0 -9 29 -25 73 -41
99 -37 101 -38 111 -74 13 -45 -3 -100 -36 -124 -57 -43 -201 -31 -253 21 -24
24 -34 66 -17 76 4 2 34 -2 67 -11 109 -27 117 -28 113 -7 -2 13 -19 24 -48
32 -81 25 -107 41 -124 77 -20 41 -13 95 14 120 44 39 124 53 195 34z m394
-13 c53 -28 62 -53 70 -198 5 -73 5 -137 0 -143 -4 -6 -65 -10 -144 -10 l-137
0 -29 33 c-31 34 -38 78 -20 125 11 29 109 72 143 64 30 -8 53 6 45 28 -6 14
-15 15 -54 8 -87 -14 -118 -11 -121 13 -4 29 42 82 81 94 43 13 127 5 166 -14z
m1189 1 c9 -7 12 -53 12 -167 0 -114 -3 -160 -12 -167 -22 -17 -66 -23 -92
-13 l-26 10 0 173 c0 96 3 177 6 180 9 9 96 -4 112 -16z m327 -1 c44 -29 78
-84 83 -136 7 -73 -3 -80 -109 -80 -80 0 -113 -10 -95 -28 4 -3 44 -9 89 -12
l82 -5 0 -35 c0 -32 -4 -36 -40 -48 -53 -18 -131 -17 -177 2 -58 25 -89 74
-95 150 -9 100 25 167 102 203 37 17 127 11 160 -11z m-2191 8 c14 -5 16 -30
16 -169 0 -118 -3 -165 -12 -172 -22 -17 -58 -22 -89 -11 l-29 10 0 167 c0 92
3 171 7 174 8 9 86 9 107 1z m-6060 -110 c20 -19 20 -56 2 -93 -9 -17 -11 -32
-5 -42 26 -41 -13 -58 -80 -34 -30 10 -48 12 -55 5 -14 -14 -61 -13 -74 3 -5
6 -16 31 -22 54 -11 37 -11 45 7 75 15 25 26 33 48 33 23 0 30 -6 36 -29 10
-36 67 -96 92 -96 23 0 16 28 -20 80 -22 33 -22 36 -6 48 23 17 58 15 77 -4z
m323 4 c86 0 136 -4 142 -12 8 -9 16 -97 12 -133 0 -7 -12 -20 -25 -28 -19
-13 -29 -14 -45 -5 -25 13 -26 27 -5 51 13 15 14 23 4 54 -8 25 -17 35 -28 33
-18 -4 -22 -45 -9 -83 5 -16 0 -24 -24 -37 -43 -25 -99 -24 -99 1 0 10 7 21
15 25 19 7 20 79 2 95 -11 8 -18 7 -29 -7 -22 -25 -39 -74 -36 -102 3 -20 -3
-25 -35 -33 -20 -5 -44 -6 -52 -3 -23 8 -18 40 10 66 31 29 31 37 0 66 -14 13
-22 29 -19 38 6 17 39 25 68 18 11 -2 80 -5 153 -4z m320 6 c33 -9 21 -70 -21
-106 -34 -29 -33 -36 5 -40 20 -3 25 2 27 27 2 17 12 39 22 50 11 11 28 30 40
43 30 33 106 29 78 -5 -9 -12 -5 -21 23 -48 19 -18 40 -40 47 -49 18 -22 32
-11 32 25 0 35 -16 70 -38 83 -12 7 -12 10 -1 17 20 12 86 11 94 -1 11 -17
-14 -104 -38 -133 -20 -24 -27 -26 -65 -20 -24 3 -46 12 -48 19 -14 47 -14 47
-29 34 -22 -18 -18 -40 6 -40 14 0 19 -5 17 -17 -4 -21 -45 -30 -61 -14 -16
16 -68 13 -87 -4 -36 -32 -58 1 -76 111 -9 59 17 83 73 68z m471 0 c15 -5 21
-12 17 -22 -7 -18 53 -114 69 -109 6 2 12 16 14 31 3 22 -4 35 -30 56 l-33 28
30 12 c16 6 46 8 67 5 45 -8 60 -40 34 -77 -19 -26 -21 -59 -5 -75 30 -30 -44
-45 -110 -22 -26 9 -35 8 -50 -5 -20 -18 -48 -13 -68 13 -19 24 -16 136 3 155
17 17 27 19 62 10z m297 -26 c3 -13 7 -48 8 -78 l2 -55 -45 0 c-43 0 -45 2
-48 30 -3 27 15 77 41 113 15 19 36 14 42 -10z m-1701 -44 c19 -18 19 -20 6
-45 -6 -10 -19 -19 -28 -19 -20 0 -62 27 -62 40 0 15 31 40 50 40 10 0 26 -7
34 -16z m1205 -214 c23 -12 30 -29 42 -99 6 -37 5 -59 -2 -68 -13 -15 -82 -17
-109 -3 -13 7 -28 7 -46 0 -18 -7 -36 -7 -58 1 -25 9 -41 8 -76 -4 -33 -11
-50 -12 -65 -5 -30 16 -35 28 -35 84 0 66 24 100 63 90 21 -5 27 -12 27 -35 0
-15 -10 -40 -21 -55 -15 -19 -18 -31 -11 -38 15 -15 29 -2 37 32 8 34 79 103
103 98 27 -5 28 -69 2 -93 -25 -22 -26 -45 -2 -45 17 1 82 86 82 108 0 9 37
42 48 42 2 0 11 -4 21 -10z m-1050 -50 c36 -56 65 -80 96 -80 24 0 45 -18 45
-37 0 -9 -26 -12 -107 -10 -106 2 -108 3 -120 28 -24 50 -25 82 -4 117 29 45
52 41 90 -18z m144 29 c13 -21 1 -68 -20 -76 -17 -7 -83 60 -83 85 0 19 90 12
103 -9z m191 15 c12 -5 16 -21 16 -75 0 -62 -2 -70 -24 -84 -27 -18 -87 -17
-93 1 -4 13 19 40 39 46 13 5 11 12 -27 77 -7 14 -12 29 -9 33 6 9 75 11 98 2z
m118 -54 c4 -78 -3 -105 -27 -105 -17 0 -20 6 -17 45 2 25 -2 58 -7 74 -13 34
-7 46 24 46 21 0 23 -5 27 -60z m148 16 c0 -25 5 -48 10 -51 16 -10 12 -65 -6
-72 -9 -3 -31 1 -50 10 -26 13 -34 23 -34 44 0 41 38 113 61 113 16 0 19 -7
19 -44z m647 28 c3 -8 0 -27 -6 -41 -22 -47 5 -47 32 0 15 25 36 47 49 51 38
10 78 7 78 -6 0 -7 11 -37 25 -66 22 -48 28 -53 52 -50 39 4 40 29 3 69 -16
19 -29 38 -27 44 6 19 63 17 88 -4 23 -18 23 -21 10 -53 -8 -18 -13 -49 -12
-69 l1 -37 -109 1 c-83 0 -111 4 -115 14 -6 14 -1 17 47 27 15 4 27 11 27 17
0 16 -31 23 -49 11 -115 -84 -146 -91 -155 -34 -3 20 -8 54 -12 74 -3 21 -4
45 0 53 7 20 65 20 73 -1z m-1401 -59 c8 -34 -1 -55 -25 -55 -20 0 -51 24 -51
40 0 25 15 40 41 40 22 0 30 -6 35 -25z m7594 -240 c33 -23 50 -27 131 -30 52
-2 123 -6 159 -10 l65 -7 24 36 c29 45 43 45 63 2 13 -27 21 -33 40 -29 30 6
45 -12 50 -57 2 -24 9 -36 21 -38 14 -3 17 4 17 47 0 54 8 60 54 42 11 -4 37
-1 60 6 36 13 42 12 66 -6 27 -19 27 -19 59 1 28 18 37 19 71 9 29 -9 49 -8
84 1 51 14 66 6 48 -23 -7 -11 -17 -43 -22 -71 -12 -59 -14 -63 -35 -55 -9 4
-15 19 -15 36 0 62 -17 74 -60 42 l-24 -19 24 -20 c51 -41 -6 -71 -64 -33 -27
18 -32 18 -57 5 -36 -18 -83 -18 -99 1 -12 14 -15 14 -36 0 -23 -15 -108 -21
-138 -9 -10 4 -16 18 -16 40 0 19 -4 34 -10 34 -5 0 -10 -10 -10 -22 0 -52
-48 -69 -136 -47 -37 10 -48 9 -69 -5 -45 -30 -66 -21 -112 50 -12 18 -14 17
-37 -10 -24 -29 -56 -31 -56 -3 0 27 -36 48 -77 45 -35 -3 -39 -6 -51 -45 -9
-29 -18 -40 -28 -36 -11 4 -14 27 -14 102 0 54 3 101 8 105 13 14 83 -2 122
-29z m-1149 -2 c31 -26 40 -28 153 -33 l121 -5 3 -37 c2 -21 9 -39 18 -42 18
-7 25 10 22 55 -3 32 -1 34 29 37 53 5 73 -12 73 -63 0 -27 5 -45 11 -45 7 0
9 11 5 31 -6 31 13 91 33 104 7 4 18 2 26 -5 16 -13 16 -169 0 -171 -5 0 -32
-3 -60 -6 -51 -5 -57 -5 -186 -1 -91 3 -119 21 -119 75 0 21 -6 36 -15 40 -22
8 -28 -2 -35 -55 -5 -47 -5 -47 -45 -49 -22 -1 -59 -5 -83 -9 -36 -5 -47 -3
-67 16 -29 27 -38 72 -25 121 19 71 84 90 141 42z m599 -19 c11 -28 3 -117
-12 -147 -6 -11 -18 -17 -31 -15 -25 3 -25 6 -6 116 13 77 31 94 49 46z m300
-32 c31 -25 21 -52 -20 -52 -32 0 -43 -26 -15 -36 17 -7 20 -40 5 -49 -21 -13
-79 24 -99 64 -29 56 -41 60 -41 13 0 -48 -31 -83 -58 -66 -17 11 -29 100 -19
129 4 8 40 12 115 13 93 2 113 -1 132 -16z m-8130 -272 c11 -7 8 -10 -16 -10
-17 0 -59 -3 -93 -6 -52 -6 -61 -5 -61 10 0 13 12 16 78 16 42 0 84 -5 92 -10z
m1335 -66 c45 -30 119 -36 303 -24 63 4 168 4 234 -1 72 -6 166 -6 236 0 74 6
137 6 176 -1 117 -19 107 -13 104 -66 -3 -40 -8 -51 -37 -74 -18 -15 -37 -25
-41 -23 -5 3 -14 21 -20 40 -13 40 -17 41 -68 18 -27 -12 -67 -17 -147 -18
-84 -1 -118 -5 -142 -18 -30 -16 -36 -16 -62 -3 -25 14 -36 31 -55 90 -9 27
-36 1 -36 -35 0 -23 -5 -29 -21 -29 -11 0 -28 4 -37 9 -11 6 -42 4 -86 -6 -53
-12 -73 -13 -87 -4 -22 13 -59 15 -59 2 0 -20 -35 -20 -67 -1 -19 11 -38 20
-42 20 -5 0 -26 -16 -47 -35 -46 -41 -77 -52 -109 -37 -33 15 -52 48 -63 110
l-9 52 56 29 c70 37 79 37 126 5z m1569 -36 c19 -27 20 -58 4 -81 -10 -13 -36
-17 -123 -21 -60 -3 -122 -8 -137 -12 -15 -3 -41 -1 -57 4 -19 7 -33 7 -36 1
-9 -14 -79 -11 -100 5 -14 10 -17 21 -12 51 10 64 -17 59 389 73 49 2 59 -1
72 -20z m-1915 -7 l21 -21 20 20 c12 12 33 20 54 20 35 0 55 -13 36 -25 -5 -3
-10 -20 -10 -36 0 -64 -7 -68 -139 -66 -100 2 -122 5 -139 20 -29 27 -63 18
-75 -18 -12 -38 -28 -58 -37 -48 -4 4 -10 43 -14 85 -8 90 -22 82 146 86 107
3 118 2 137 -17z m-1382 -43 c-3 -7 -5 -2 -5 12 0 14 2 19 5 13 2 -7 2 -19 0
-25z m172 20 c130 4 151 -4 151 -53 0 -18 5 -46 11 -62 19 -47 17 -65 -12 -95
-27 -29 -29 -29 -138 -30 -148 -1 -156 5 -146 112 7 90 17 149 22 135 2 -6 46
-9 112 -7z m174 -33 c3 -17 2 -37 -4 -45 -6 -11 -9 -5 -9 22 0 20 -3 45 -6 55
-5 12 -4 15 3 8 6 -5 13 -24 16 -40z m36 -13 c1 -7 -3 -10 -9 -7 -5 3 -10 21
-9 38 1 31 1 31 9 7 4 -14 8 -31 9 -38z m-12 -54 c-3 -7 -5 -2 -5 12 0 14 2
19 5 13 2 -7 2 -19 0 -25z m1218 -158 c13 -5 25 -20 28 -37 13 -68 13 -68 -13
-65 -14 1 -33 13 -43 25 l-18 22 -16 -22 c-24 -35 -51 -30 -55 10 -4 46 -39
45 -52 -2 -9 -31 -11 -33 -45 -27 -20 3 -45 6 -57 6 -12 0 -25 10 -32 25 -15
33 -33 31 -54 -5 -15 -26 -23 -30 -62 -30 -27 0 -51 6 -60 16 -18 17 -22 74
-7 90 12 11 453 6 486 -6z m389 -36 c-6 -35 -6 -35 22 -32 25 2 29 8 32 35 2
19 11 37 20 41 9 5 175 7 367 6 407 -3 358 -3 557 -1 94 1 161 -2 166 -8 5 -6
12 -31 15 -58 4 -46 3 -48 -29 -63 -18 -9 -38 -14 -43 -12 -5 1 -24 25 -43 52
-18 27 -38 49 -43 49 -6 0 -19 -18 -31 -39 l-20 -39 -89 -1 c-49 -1 -112 -7
-141 -14 -64 -16 -78 -11 -105 35 -24 40 -46 46 -51 13 -3 -25 -45 -36 -74
-20 -11 6 -32 4 -62 -4 -56 -17 -118 -18 -129 -1 -4 6 -13 27 -18 46 -14 46
-41 63 -61 37 -19 -27 -18 -31 19 -65 l32 -31 -27 0 c-42 0 -78 17 -78 39 0
21 -23 45 -33 34 -4 -3 -7 -17 -7 -29 0 -13 -9 -28 -19 -34 -27 -14 -117 -13
-141 2 -15 10 -26 10 -53 0 -49 -18 -79 -16 -75 5 2 10 12 19 23 22 25 4 35
19 35 53 0 22 5 27 28 30 47 6 64 -8 56 -48z m1409 40 c28 -6 35 -18 17 -29
-18 -11 -11 -45 9 -45 23 0 34 25 21 50 -11 20 1 23 146 36 92 8 104 -5 67
-78 -13 -26 -27 -48 -32 -48 -15 0 -31 25 -31 50 -1 64 -45 64 -66 -1 -9 -26
-18 -34 -35 -34 -13 0 -34 -4 -47 -9 -33 -11 -78 12 -96 51 -13 28 -21 33 -52
33 -31 0 -35 -3 -32 -22 2 -17 13 -25 41 -32 53 -13 50 -38 -5 -34 -31 2 -46
10 -61 30 -19 25 -19 30 -6 54 23 43 54 48 162 28z m-1533 -4 c0 -23 -31 -70
-47 -70 -8 0 -31 -16 -49 -36 -48 -50 -59 -42 -59 44 l0 72 78 0 c47 0 77 -4
77 -10z m-1500 -2476 c0 -4 -11 -17 -25 -30 -27 -25 -33 -17 -13 16 12 19 38
28 38 14z m60 -108 c0 -3 -4 -8 -10 -11 -5 -3 -10 -1 -10 4 0 6 5 11 10 11 6
0 10 -2 10 -4z m-40 -30 c0 -3 -4 -8 -10 -11 -5 -3 -10 -1 -10 4 0 6 5 11 10
11 6 0 10 -2 10 -4z m-100 -166 c0 -5 -4 -10 -10 -10 -5 0 -10 5 -10 10 0 6 5
10 10 10 6 0 10 -4 10 -10z m-20 -25 c0 -3 -9 -16 -21 -28 l-21 -22 13 28 c11
23 29 37 29 22z m-170 -85 c0 -5 -4 -10 -10 -10 -5 0 -10 5 -10 10 0 6 5 10
10 10 6 0 10 -4 10 -10z m-920 -644 c0 -3 -4 -8 -10 -11 -5 -3 -10 -1 -10 4 0
6 5 11 10 11 6 0 10 -2 10 -4z m-466 -281 c-25 -19 -44 -19 -44 -1 0 8 12 16
28 18 36 5 40 1 16 -17z"/>
<path d="M4070 7840 c0 -5 7 -10 15 -10 8 0 15 5 15 10 0 6 -7 10 -15 10 -8 0
-15 -4 -15 -10z"/>
<path d="M4190 7834 c0 -10 7 -14 22 -12 32 5 35 28 4 28 -17 0 -26 -5 -26
-16z"/>
<path d="M4400 7835 c0 -8 9 -15 20 -15 11 0 20 7 20 15 0 8 -9 15 -20 15 -11
0 -20 -7 -20 -15z"/>
<path d="M3297 7844 c-6 -32 14 -41 50 -25 22 10 24 14 12 25 -8 8 -24 17 -35
20 -18 5 -23 2 -27 -20z"/>
<path d="M3454 7575 c-16 -13 -17 -16 -4 -25 37 -24 106 0 78 28 -16 16 -50
15 -74 -3z"/>
<path d="M3599 7571 c-21 -17 -22 -20 -7 -26 27 -11 53 -1 53 19 0 27 -18 30
-46 7z"/>
<path d="M4138 7582 c-27 -5 -22 -29 8 -36 28 -7 64 0 64 14 0 11 -51 27 -72
22z"/>
<path d="M8361 6952 c-11 -20 2 -42 25 -42 18 0 35 26 28 44 -8 22 -41 20 -53
-2z"/>
<path d="M9456 6841 c-17 -19 -17 -20 9 -37 24 -15 28 -16 42 -2 12 12 13 20
4 37 -14 26 -33 27 -55 2z"/>
<path d="M10974 6955 c-8 -20 2 -45 19 -45 24 0 48 25 41 43 -8 21 -52 23 -60
2z"/>
<path d="M3927 6853 c-12 -12 -7 -31 10 -37 24 -9 39 9 23 29 -14 16 -23 19
-33 8z"/>
<path d="M3715 6560 c-3 -5 1 -10 9 -10 9 0 16 5 16 10 0 6 -4 10 -9 10 -6 0
-13 -4 -16 -10z"/>
<path d="M2676 6571 c-4 -7 -5 -15 -2 -18 9 -9 19 4 14 18 -4 11 -6 11 -12 0z"/>
<path d="M10083 6343 c-21 -7 -15 -33 7 -33 11 0 20 6 20 14 0 18 -11 25 -27
19z"/>
<path d="M10491 6282 c-14 -27 2 -64 24 -56 19 8 19 34 1 59 -13 18 -14 18
-25 -3z"/>
<path d="M10833 6283 c-16 -3 -23 -11 -23 -29 0 -22 4 -24 45 -24 43 0 65 16
65 49 0 11 -43 13 -87 4z"/>
<path d="M10356 6271 c-7 -10 22 -37 30 -28 9 8 -3 37 -15 37 -5 0 -12 -4 -15
-9z"/>
<path d="M8904 6316 c-9 -37 -1 -78 18 -90 29 -18 99 12 111 48 8 25 6 32 -13
48 -14 11 -39 18 -66 18 -38 0 -44 -3 -50 -24z"/>
<path d="M9190 6262 c0 -24 19 -42 46 -42 37 0 37 18 2 40 -41 25 -48 25 -48
2z"/>
<path d="M3225 5880 c-3 -6 1 -13 10 -16 19 -8 30 0 20 15 -8 14 -22 14 -30 1z"/>
<path d="M4272 5898 c-15 -15 3 -38 29 -38 23 0 26 35 3 44 -20 8 -18 8 -32
-6z"/>
<path d="M240 4191 c0 -5 -9 -11 -20 -14 -12 -3 -20 -14 -20 -26 0 -23 -1 -24
-24 -15 -9 3 -16 13 -16 21 0 21 -23 10 -37 -18 -7 -13 -18 -23 -23 -21 -6 1
-21 -7 -33 -19 -12 -11 -32 -25 -45 -30 -19 -7 -22 -16 -22 -57 l0 -49 180 90
c99 50 179 92 177 94 -2 1 -18 -2 -36 -7 -23 -6 -31 -6 -29 2 2 6 -6 22 -18
35 -22 24 -34 29 -34 14z"/>
<path d="M1680 3250 c0 -5 5 -10 10 -10 6 0 10 5 10 10 0 6 -4 10 -10 10 -5 0
-10 -4 -10 -10z"/>
<path d="M1860 3151 c0 -7 -4 -9 -10 -6 -5 3 -7 0 -4 -8 3 -8 1 -18 -5 -22 -6
-3 -11 -12 -11 -18 0 -7 10 3 21 21 12 18 19 36 15 39 -3 4 -6 1 -6 -6z"/>
<path d="M1530 3139 c0 -5 5 -7 10 -4 6 3 10 8 10 11 0 2 -4 4 -10 4 -5 0 -10
-5 -10 -11z"/>
<path d="M1745 2880 c-3 -5 -1 -10 4 -10 6 0 11 5 11 10 0 6 -2 10 -4 10 -3 0
-8 -4 -11 -10z"/>
<path d="M1457 2663 c-10 -9 -9 -23 2 -23 5 0 11 7 15 15 5 15 -5 20 -17 8z"/>
<path d="M60 1951 c0 -6 5 -13 10 -16 6 -3 10 1 10 9 0 9 -4 16 -10 16 -5 0
-10 -4 -10 -9z"/>
<path d="M2770 1012 c0 -13 70 -23 89 -12 12 7 9 9 -14 10 -16 0 -40 3 -52 6
-13 4 -23 2 -23 -4z"/>
<path d="M7 74 c-4 -4 -7 -23 -7 -41 0 -27 4 -34 18 -31 12 2 17 13 17 37 0
33 -13 49 -28 35z"/>
<path d="M50 20 c0 -5 5 -10 10 -10 6 0 10 5 10 10 0 6 -4 10 -10 10 -5 0 -10
-4 -10 -10z"/>
<path d="M1440 10 c0 -6 43 -10 113 -9 87 1 103 3 72 10 -57 11 -185 11 -185
-1z"/>
</g>
</svg>
