<?xml version="1.0" standalone="no"?>
<!DOCTYPE svg PUBLIC "-//W3C//DTD SVG 20010904//EN"
 "http://www.w3.org/TR/2001/REC-SVG-20010904/DTD/svg10.dtd">
<svg version="1.0" xmlns="http://www.w3.org/2000/svg"
 width="360.000000pt" height="360.000000pt" viewBox="0 0 360.000000 360.000000"
 preserveAspectRatio="xMidYMid meet">

<g transform="translate(0.000000,360.000000) scale(0.100000,-0.100000)"
fill="#000000" stroke="none">
<path d="M1225 2466 c-37 -17 -80 -62 -94 -99 -15 -39 -15 -1095 0 -1134 14
-38 57 -83 96 -99 48 -21 1098 -21 1146 0 39 16 82 61 96 99 7 19 11 211 11
568 0 436 -3 546 -14 572 -16 39 -61 82 -99 96 -45 17 -1103 14 -1142 -3z"/>
</g>
</svg>
