<svg width="26" height="41" viewBox="0 0 26 41" fill="none" xmlns="http://www.w3.org/2000/svg">
<path d="M3.35378 38V30.644H0.473781V29.6H7.42178V30.644H4.54178V38H3.35378ZM10.7365 38.072C10.0565 38.072 9.4565 37.932 8.9365 37.652C8.4245 37.372 8.0245 36.988 7.7365 36.5C7.4565 36.012 7.3165 35.452 7.3165 34.82C7.3165 34.188 7.4525 33.628 7.7245 33.14C8.0045 32.652 8.3845 32.272 8.8645 32C9.3525 31.72 9.9005 31.58 10.5085 31.58C11.1245 31.58 11.6685 31.716 12.1405 31.988C12.6125 32.26 12.9805 32.644 13.2445 33.14C13.5165 33.628 13.6525 34.2 13.6525 34.856C13.6525 34.904 13.6485 34.96 13.6405 35.024C13.6405 35.088 13.6365 35.148 13.6285 35.204H8.2165V34.376H13.0285L12.5605 34.664C12.5685 34.256 12.4845 33.892 12.3085 33.572C12.1325 33.252 11.8885 33.004 11.5765 32.828C11.2725 32.644 10.9165 32.552 10.5085 32.552C10.1085 32.552 9.7525 32.644 9.4405 32.828C9.1285 33.004 8.8845 33.256 8.7085 33.584C8.5325 33.904 8.4445 34.272 8.4445 34.688V34.88C8.4445 35.304 8.5405 35.684 8.7325 36.02C8.9325 36.348 9.2085 36.604 9.5605 36.788C9.9125 36.972 10.3165 37.064 10.7725 37.064C11.1485 37.064 11.4885 37 11.7925 36.872C12.1045 36.744 12.3765 36.552 12.6085 36.296L13.2445 37.04C12.9565 37.376 12.5965 37.632 12.1645 37.808C11.7405 37.984 11.2645 38.072 10.7365 38.072ZM14.1524 38L16.8884 34.448L16.8764 35.036L14.2724 31.64H15.5564L17.5484 34.256H17.0564L19.0484 31.64H20.3084L17.6684 35.06L17.6804 34.448L20.4404 38H19.1324L17.0324 35.216L17.5004 35.288L15.4364 38H14.1524ZM23.8815 38.072C23.2415 38.072 22.7455 37.9 22.3935 37.556C22.0415 37.212 21.8655 36.72 21.8655 36.08V30.248H23.0175V36.032C23.0175 36.376 23.1015 36.64 23.2695 36.824C23.4455 37.008 23.6935 37.1 24.0135 37.1C24.3735 37.1 24.6735 37 24.9135 36.8L25.2735 37.628C25.0975 37.78 24.8855 37.892 24.6375 37.964C24.3975 38.036 24.1455 38.072 23.8815 38.072ZM20.7855 32.588V31.64H24.8415V32.588H20.7855Z" fill="#0F0E0E"/>
<circle cx="13" cy="12" r="12" fill="#0F0E0E"/>
<path d="M18.0625 9.75H15.25V10.875H18.0625C18.2117 10.875 18.3548 10.9343 18.4602 11.0398C18.5657 11.1452 18.625 11.2883 18.625 11.4375V12.5625H16.375C15.9276 12.5629 15.4986 12.7409 15.1823 13.0573C14.8659 13.3736 14.6879 13.8026 14.6875 14.25V14.8125C14.6879 15.2599 14.8659 15.6889 15.1823 16.0052C15.4986 16.3216 15.9276 16.4996 16.375 16.5H19.75V11.4375C19.7496 10.9901 19.5716 10.5611 19.2552 10.2448C18.9389 9.92838 18.5099 9.75045 18.0625 9.75ZM16.375 15.375C16.2258 15.375 16.0827 15.3157 15.9773 15.2102C15.8718 15.1048 15.8125 14.9617 15.8125 14.8125V14.25C15.8125 14.1008 15.8718 13.9577 15.9773 13.8523C16.0827 13.7468 16.2258 13.6875 16.375 13.6875H18.625V15.375H16.375ZM13 16.5H14.125L10.75 6.9375H9.625L6.25 16.5H7.375L8.32787 13.6875H12.0477L13 16.5ZM8.70869 12.5625L10.1133 8.41631H10.2629L11.6669 12.5625H8.70869Z" fill="white"/>
</svg>
