<?xml version="1.0" standalone="no"?>
<!DOCTYPE svg PUBLIC "-//W3C//DTD SVG 20010904//EN"
 "http://www.w3.org/TR/2001/REC-SVG-20010904/DTD/svg10.dtd">
<svg version="1.0" xmlns="http://www.w3.org/2000/svg"
 width="64.000000pt" height="64.000000pt" viewBox="0 0 64.000000 64.000000"
 preserveAspectRatio="xMidYMid meet">

<g transform="translate(0.000000,64.000000) scale(0.100000,-0.100000)"
fill="#000000" stroke="none">
<path d="M213 477 c-52 -29 -93 -59 -93 -67 0 -15 176 -120 200 -120 26 0 200
105 197 120 -2 16 -173 120 -197 120 -8 -1 -57 -24 -107 -53z m183 -18 c41
-22 74 -44 74 -49 0 -5 -34 -27 -75 -50 l-75 -41 -75 41 c-41 23 -75 45 -75
50 0 6 135 88 149 90 2 0 37 -18 77 -41z"/>
<path d="M116 301 c-6 -10 176 -101 202 -101 28 0 202 84 202 98 0 19 -12 15
-110 -29 l-90 -42 -90 42 c-96 43 -106 46 -114 32z"/>
<path d="M120 208 c1 -16 177 -99 205 -98 28 2 187 82 193 98 6 20 -15 14
-109 -29 l-89 -42 -89 42 c-96 44 -111 48 -111 29z"/>
</g>
</svg>
