<svg width="7" height="11" viewBox="0 0 7 11" fill="none" xmlns="http://www.w3.org/2000/svg">
<path d="M6.77159 0.20194C6.84399 0.265791 6.90144 0.341643 6.94063 0.425152C6.97983 0.50866 7 0.598185 7 0.688598C7 0.779011 6.97983 0.868535 6.94063 0.952044C6.90144 1.03555 6.84399 1.1114 6.77159 1.17526L1.8782 5.50018L6.77159 9.82511C6.91758 9.95417 6.99959 10.1292 6.99959 10.3118C6.99959 10.4943 6.91758 10.6694 6.77159 10.7984C6.6256 10.9275 6.4276 11 6.22114 11C6.01468 11 5.81668 10.9275 5.67069 10.7984L0.22841 5.98684C0.156008 5.92299 0.0985639 5.84714 0.0593693 5.76363C0.0201752 5.68012 -2.44373e-07 5.59059 -2.40421e-07 5.50018C-2.36468e-07 5.40977 0.0201752 5.32024 0.0593693 5.23673C0.0985639 5.15323 0.156008 5.07737 0.228411 5.01352L5.67069 0.20194C5.74291 0.137928 5.82871 0.0871415 5.92316 0.0524892C6.01762 0.017837 6.11888 -3.85151e-08 6.22114 -3.4045e-08C6.32341 -2.95749e-08 6.42467 0.017837 6.51912 0.0524893C6.61357 0.0871415 6.69937 0.137928 6.77159 0.20194Z" fill="#666666"/>
</svg>
