<svg width="16" height="18" viewBox="0 0 16 18" fill="none" xmlns="http://www.w3.org/2000/svg">
<path d="M11.42 6.705L4.715 0L3.6575 1.0575L5.4425 2.8425L1.58 6.705C1.47478 6.80894 1.39124 6.93273 1.33423 7.0692C1.27721 7.20567 1.24785 7.3521 1.24785 7.5C1.24785 7.6479 1.27721 7.79433 1.33423 7.9308C1.39124 8.06727 1.47478 8.19106 1.58 8.295L5.705 12.42C5.9225 12.6375 6.215 12.75 6.5 12.75C6.785 12.75 7.0775 12.6375 7.295 12.42L11.42 8.295C11.8625 7.86 11.8625 7.1475 11.42 6.705ZM2.9075 7.5L6.5 3.9075L10.0925 7.5H2.9075ZM13.25 8.625C13.25 8.625 11.75 10.2525 11.75 11.25C11.75 12.075 12.425 12.75 13.25 12.75C14.075 12.75 14.75 12.075 14.75 11.25C14.75 10.2525 13.25 8.625 13.25 8.625ZM0.5 15H15.5V18H0.5V15Z" fill="#0F0E0E"/>
</svg>
