<svg width="14" height="17" viewBox="0 0 14 17" fill="none" xmlns="http://www.w3.org/2000/svg">
<path d="M12.4817 8.81004C12.4125 8.8582 10.9766 10.3776 10.9766 11.4439C10.9766 12.5682 11.6908 13.2862 12.4817 13.3253C13.1635 13.3584 13.9868 12.6548 13.9868 11.4439C13.9868 10.3151 12.5509 8.8582 12.4817 8.81004ZM4.64471 13.3253C4.92917 13.6098 5.30694 13.7663 5.7088 13.7663C6.11066 13.7663 6.48844 13.6098 6.7729 13.3253L12.0407 8.05749L11.5087 7.52544L5.7088 1.72558L3.98322 0L2.91912 1.0641L4.64471 2.78968L0.440991 6.9934C0.156529 7.27786 0 7.65563 0 8.05749C0 8.45935 0.156529 8.83713 0.440991 9.12159L4.64471 13.3253ZM5.7088 3.85378L9.91252 8.05749H1.50509L5.7088 3.85378Z" fill="white"/>
<rect y="15.3893" width="14" height="0.961832" fill="white"/>
</svg>
