<svg width="20" height="15" viewBox="0 0 20 15" fill="none" xmlns="http://www.w3.org/2000/svg">
<path d="M20 1.78181C19.2645 2.07471 18.4641 2.28551 17.6397 2.36761C18.4956 1.89816 19.1366 1.15652 19.4424 0.281814C18.6392 0.722914 17.7593 1.03222 16.8417 1.19601C16.4582 0.817523 15.9944 0.516 15.4792 0.310233C14.9639 0.104466 14.4083 -0.00113561 13.8469 9.20947e-06C11.5755 9.20947e-06 9.74883 1.69971 9.74883 3.78551C9.74883 4.07841 9.78729 4.37131 9.84978 4.65311C6.44874 4.48891 3.41546 2.98891 1.39887 0.692316C1.03143 1.27171 0.838874 1.93143 0.841245 2.60282C0.841245 3.91643 1.56472 5.07471 2.66795 5.75592C2.0178 5.73229 1.38287 5.56731 0.814806 5.27441V5.32101C0.814806 7.16051 2.22329 8.68492 4.10047 9.03551C3.74801 9.12003 3.38543 9.16327 3.02127 9.16421C2.75448 9.16421 2.5021 9.1398 2.24733 9.10651C2.76649 10.6065 4.27833 11.696 6.0786 11.7315C4.67011 12.75 2.9059 13.3491 0.990266 13.3491C0.646557 13.3491 0.329287 13.338 0 13.3025C1.81709 14.3787 3.97308 15 6.29492 15C13.8325 15 17.957 9.23521 17.957 4.23152C17.957 4.06731 17.957 3.90311 17.945 3.73891C18.7429 3.19971 19.4424 2.53181 20 1.78181Z" fill="white"/>
</svg>
