<svg width="15" height="15" viewBox="0 0 15 15" fill="none" xmlns="http://www.w3.org/2000/svg">
<path d="M0 7.54506C0.000422424 9.34206 0.637853 11.08 1.79772 12.4465C2.95759 13.8129 4.56383 14.7184 6.32775 15V9.72593H4.425V7.54506H6.33V5.88488C6.28794 5.49632 6.33142 5.1032 6.45737 4.73345C6.58331 4.3637 6.78863 4.02639 7.05873 3.74547C7.32883 3.46455 7.6571 3.24692 8.02022 3.10803C8.38333 2.96914 8.77239 2.9124 9.15975 2.94184C9.72225 2.9509 10.2847 3.00146 10.8398 3.09277V4.94839H9.89175C9.73063 4.92716 9.56682 4.94263 9.41244 4.99366C9.25806 5.04468 9.11705 5.12997 8.99983 5.2432C8.88261 5.35643 8.79218 5.49472 8.73522 5.64785C8.67826 5.80098 8.65623 5.96503 8.67075 6.12787V7.54506H10.749L10.4167 9.72668H8.67075V15C10.0865 14.7749 11.4084 14.1463 12.4801 13.1887C13.5518 12.2311 14.3284 10.9846 14.7178 9.59675C15.1073 8.20888 15.0933 6.73779 14.6776 5.35765C14.262 3.97751 13.4619 2.74612 12.3723 1.80926C11.2826 0.872403 9.949 0.269317 8.52927 0.0714047C7.10955 -0.126507 5.66319 0.089043 4.36144 0.692536C3.05969 1.29603 1.95706 2.26219 1.1841 3.47663C0.411145 4.69107 0.000227528 6.10293 0 7.54506Z" fill="white"/>
</svg>
