<svg width="15" height="15" viewBox="0 0 15 15" fill="none" xmlns="http://www.w3.org/2000/svg">
<path d="M7.50512 1.50957e-06C5.75632 -0.00110752 4.0621 0.608885 2.71541 1.72451C1.36871 2.84013 0.454208 4.39125 0.130016 6.10966C-0.194175 7.82807 0.0923277 9.60574 0.939987 11.1353C1.78765 12.6649 3.14317 13.8502 4.77218 14.4863C4.70655 13.8928 4.64655 12.9806 4.7975 12.3328C4.93438 11.7469 5.67691 8.60438 5.67691 8.60438C5.67691 8.60438 5.45284 8.15531 5.45284 7.49156C5.45284 6.44813 6.05756 5.67 6.8104 5.67C7.44981 5.67 7.7592 6.15 7.7592 6.72656C7.7592 7.36969 7.34949 8.33156 7.13761 9.22313C6.96135 9.96938 7.51262 10.5788 8.2486 10.5788C9.58178 10.5788 10.6065 9.1725 10.6065 7.14375C10.6065 5.34844 9.31552 4.09313 7.47325 4.09313C5.3394 4.09313 4.08684 5.69344 4.08684 7.34719C4.08684 7.99219 4.33529 8.68313 4.64468 9.05906C4.67132 9.0874 4.69016 9.12216 4.69936 9.15995C4.70856 9.19775 4.70781 9.23728 4.69718 9.27469C4.63999 9.51094 4.51342 10.0209 4.48904 10.125C4.45623 10.2619 4.38029 10.2909 4.23778 10.2253C3.30024 9.78938 2.71521 8.41969 2.71521 7.31906C2.71521 4.95375 4.43467 2.78156 7.67107 2.78156C10.2728 2.78156 12.295 4.635 12.295 7.11281C12.295 9.6975 10.6646 11.7778 8.40329 11.7778C7.64294 11.7778 6.92853 11.3831 6.68384 10.9163L6.21694 12.6994C6.04724 13.3509 5.58972 14.1675 5.28408 14.6653C6.31535 14.9842 7.4033 15.0767 8.47361 14.9365C9.54391 14.7963 10.5713 14.4268 11.4857 13.8532C12.4001 13.2795 13.1799 12.5153 13.7718 11.6126C14.3637 10.71 14.7538 9.69023 14.9154 8.62301C15.0771 7.55578 15.0064 6.46625 14.7083 5.42883C14.4102 4.39141 13.8917 3.43056 13.1882 2.61191C12.4847 1.79326 11.6127 1.1361 10.6319 0.685327C9.65112 0.234555 8.58457 0.000789659 7.50512 1.50957e-06Z" fill="white"/>
</svg>
