<svg width="14" height="14" viewBox="0 0 14 14" fill="none" xmlns="http://www.w3.org/2000/svg">
<g clip-path="url(#clip0_44_47)">
<path d="M10.9375 4.18975C10.9375 4.48872 10.8187 4.77544 10.6073 4.98684C10.3959 5.19824 10.1092 5.317 9.81025 5.317C9.51128 5.317 9.22456 5.19824 9.01316 4.98684C8.80176 4.77544 8.683 4.48872 8.683 4.18975C8.683 3.89078 8.80176 3.60406 9.01316 3.39266C9.22456 3.18126 9.51128 3.0625 9.81025 3.0625C10.1092 3.0625 10.3959 3.18126 10.6073 3.39266C10.8187 3.60406 10.9375 3.89078 10.9375 4.18975ZM0.25 3.0625C0.25 2.31658 0.546316 1.60121 1.07376 1.07376C1.60121 0.546316 2.31658 0.25 3.0625 0.25H10.9375C11.6834 0.25 12.3988 0.546316 12.9262 1.07376C13.4537 1.60121 13.75 2.31658 13.75 3.0625V10.9375C13.75 11.6834 13.4537 12.3988 12.9262 12.9262C12.3988 13.4537 11.6834 13.75 10.9375 13.75H3.0625C2.31658 13.75 1.60121 13.4537 1.07376 12.9262C0.546316 12.3988 0.25 11.6834 0.25 10.9375V3.0625ZM3.0625 1.375C2.61495 1.375 2.18572 1.55279 1.86926 1.86926C1.55279 2.18572 1.375 2.61495 1.375 3.0625V10.9375C1.375 11.1985 1.4335 11.4438 1.53925 11.6654L5.64775 7.55687C6.00641 7.19827 6.49282 6.99681 7 6.99681C7.50718 6.99681 7.99359 7.19827 8.35225 7.55687L12.4608 11.6654C12.5695 11.4382 12.6256 11.1894 12.625 10.9375V3.0625C12.625 2.61495 12.4472 2.18572 12.1307 1.86926C11.8143 1.55279 11.3851 1.375 10.9375 1.375H3.0625ZM11.6654 12.4608L7.55687 8.35225C7.48375 8.27911 7.39693 8.2211 7.30138 8.18152C7.20583 8.14194 7.10342 8.12157 7 8.12157C6.89658 8.12157 6.79417 8.14194 6.69862 8.18152C6.60307 8.2211 6.51625 8.27911 6.44313 8.35225L2.33463 12.4608C2.55512 12.5665 2.8015 12.625 3.0625 12.625H10.9375C11.1985 12.625 11.4438 12.5654 11.6654 12.4608Z" fill="white"/>
</g>
<defs>
<clipPath id="clip0_44_47">
<rect width="14" height="14" fill="white"/>
</clipPath>
</defs>
</svg>
