<svg width="12" height="18" viewBox="0 0 12 18" fill="none" xmlns="http://www.w3.org/2000/svg">
<path d="M4.71429 15.5455H7.28571C7.4 15.5455 7.5 15.5045 7.58571 15.4227C7.67143 15.3409 7.71429 15.2455 7.71429 15.1364C7.71429 15.0273 7.67143 14.9318 7.58571 14.85C7.5 14.7682 7.4 14.7273 7.28571 14.7273H4.71429C4.6 14.7273 4.5 14.7682 4.41429 14.85C4.32857 14.9318 4.28571 15.0273 4.28571 15.1364C4.28571 15.2455 4.32857 15.3409 4.41429 15.4227C4.5 15.5045 4.6 15.5455 4.71429 15.5455ZM1.71429 18C1.24286 18 0.839428 17.8399 0.504 17.5197C0.168 17.199 0 16.8136 0 16.3636V1.63636C0 1.18636 0.168 0.801 0.504 0.480273C0.839428 0.160091 1.24286 0 1.71429 0H10.2857C10.7571 0 11.1609 0.160091 11.4969 0.480273C11.8323 0.801 12 1.18636 12 1.63636V16.3636C12 16.8136 11.8323 17.199 11.4969 17.5197C11.1609 17.8399 10.7571 18 10.2857 18H1.71429ZM1.71429 12.2727H10.2857V4.09091H1.71429V12.2727ZM1.71429 13.9091V16.3636H10.2857V13.9091H1.71429ZM1.71429 2.45455H10.2857V1.63636H1.71429V2.45455ZM1.71429 1.63636V2.45455V1.63636ZM1.71429 16.3636V13.9091V16.3636Z" fill="#5C5D66"/>
</svg>
