<svg width="16" height="12" viewBox="0 0 16 12" fill="none" xmlns="http://www.w3.org/2000/svg">
<path d="M14.1717 5.30801C14.4877 5.72134 14.4877 6.27934 14.1717 6.69201C13.1763 7.99134 10.7883 10.6667 8.00033 10.6667C5.21233 10.6667 2.82433 7.99134 1.829 6.69201C1.67526 6.4941 1.5918 6.25062 1.5918 6.00001C1.5918 5.7494 1.67526 5.50592 1.829 5.30801C2.82433 4.00868 5.21233 1.33334 8.00033 1.33334C10.7883 1.33334 13.1763 4.00868 14.1717 5.30801V5.30801Z" stroke="#0F0E0E" stroke-width="1.2" stroke-linecap="round" stroke-linejoin="round"/>
<path d="M8 8C9.10457 8 10 7.10457 10 6C10 4.89543 9.10457 4 8 4C6.89543 4 6 4.89543 6 6C6 7.10457 6.89543 8 8 8Z" stroke="#0F0E0E" stroke-width="1.2" stroke-linecap="round" stroke-linejoin="round"/>
</svg>
