<svg width="20" height="16" viewBox="0 0 20 16" fill="none" xmlns="http://www.w3.org/2000/svg">
<path d="M6.207 0C6.667 0 7.115 0.141 7.491 0.402L7.647 0.522L10.022 2.5H17.75C18.2928 2.49982 18.8174 2.69588 19.227 3.05204C19.6367 3.40819 19.9037 3.90043 19.979 4.438L19.995 4.596L20 4.75V13.75C20.0001 14.3201 19.7837 14.869 19.3946 15.2858C19.0056 15.7025 18.4728 15.956 17.904 15.995L17.75 16H2.25C1.67987 16.0001 1.13098 15.7837 0.714247 15.3946C0.297514 15.0056 0.0440221 14.4728 0.00500013 13.904L1.69987e-08 13.75V2.25C-7.00219e-05 1.67987 0.216295 1.13098 0.605369 0.714247C0.994443 0.297514 1.52721 0.0440221 2.096 0.00500011L2.25 0H6.207ZM7.647 5.979C7.29425 6.27254 6.86018 6.45119 6.403 6.491L6.207 6.5L1.5 6.499V13.75C1.5 14.13 1.782 14.444 2.148 14.493L2.25 14.5H17.75C17.9312 14.5 18.1063 14.4344 18.2429 14.3152C18.3795 14.1961 18.4684 14.0316 18.493 13.852L18.5 13.75V4.75C18.5 4.56876 18.4344 4.39366 18.3152 4.25707C18.1961 4.12048 18.0316 4.03165 17.852 4.007L17.75 4H10.021L7.647 5.979ZM6.207 1.5H2.25C2.06876 1.50001 1.89366 1.56564 1.75707 1.68477C1.62048 1.80389 1.53165 1.96845 1.507 2.148L1.5 2.25V4.999L6.207 5C6.34662 4.99983 6.48342 4.9607 6.602 4.887L6.687 4.827L8.578 3.249L6.688 1.674C6.5804 1.5842 6.4498 1.52635 6.311 1.507L6.207 1.5Z" fill="#0F0E0E"/>
</svg>
