<svg width="14" height="14" viewBox="0 0 14 14" fill="none" xmlns="http://www.w3.org/2000/svg">
<g clip-path="url(#clip0_44_45)">
<path d="M1.75 6.25H4.75C5.575 6.25 6.25 5.575 6.25 4.75V1.75C6.25 0.925 5.575 0.25 4.75 0.25H1.75C0.925 0.25 0.25 0.925 0.25 1.75V4.75C0.25 5.575 0.925 6.25 1.75 6.25ZM1.75 1.75H4.75V4.75H1.75V1.75ZM1.75 13.75H4.75C5.575 13.75 6.25 13.075 6.25 12.25V9.25C6.25 8.425 5.575 7.75 4.75 7.75H1.75C0.925 7.75 0.25 8.425 0.25 9.25V12.25C0.25 13.075 0.925 13.75 1.75 13.75ZM1.75 9.25H4.75V12.25H1.75V9.25ZM7.75 1.75V4.75C7.75 5.575 8.425 6.25 9.25 6.25H12.25C13.075 6.25 13.75 5.575 13.75 4.75V1.75C13.75 0.925 13.075 0.25 12.25 0.25H9.25C8.425 0.25 7.75 0.925 7.75 1.75ZM12.25 4.75H9.25V1.75H12.25V4.75ZM13.75 13.375V12.625C13.75 12.415 13.585 12.25 13.375 12.25H12.625C12.415 12.25 12.25 12.415 12.25 12.625V13.375C12.25 13.585 12.415 13.75 12.625 13.75H13.375C13.585 13.75 13.75 13.585 13.75 13.375ZM7.75 8.125V8.875C7.75 9.085 7.915 9.25 8.125 9.25H8.875C9.085 9.25 9.25 9.085 9.25 8.875V8.125C9.25 7.915 9.085 7.75 8.875 7.75H8.125C7.915 7.75 7.75 7.915 7.75 8.125ZM10.375 9.25H9.625C9.415 9.25 9.25 9.415 9.25 9.625V10.375C9.25 10.585 9.415 10.75 9.625 10.75H10.375C10.585 10.75 10.75 10.585 10.75 10.375V9.625C10.75 9.415 10.585 9.25 10.375 9.25ZM7.75 11.125V11.875C7.75 12.085 7.915 12.25 8.125 12.25H8.875C9.085 12.25 9.25 12.085 9.25 11.875V11.125C9.25 10.915 9.085 10.75 8.875 10.75H8.125C7.915 10.75 7.75 10.915 7.75 11.125ZM9.625 13.75H10.375C10.585 13.75 10.75 13.585 10.75 13.375V12.625C10.75 12.415 10.585 12.25 10.375 12.25H9.625C9.415 12.25 9.25 12.415 9.25 12.625V13.375C9.25 13.585 9.415 13.75 9.625 13.75ZM11.125 12.25H11.875C12.085 12.25 12.25 12.085 12.25 11.875V11.125C12.25 10.915 12.085 10.75 11.875 10.75H11.125C10.915 10.75 10.75 10.915 10.75 11.125V11.875C10.75 12.085 10.915 12.25 11.125 12.25ZM11.875 7.75H11.125C10.915 7.75 10.75 7.915 10.75 8.125V8.875C10.75 9.085 10.915 9.25 11.125 9.25H11.875C12.085 9.25 12.25 9.085 12.25 8.875V8.125C12.25 7.915 12.085 7.75 11.875 7.75ZM12.625 10.75H13.375C13.585 10.75 13.75 10.585 13.75 10.375V9.625C13.75 9.415 13.585 9.25 13.375 9.25H12.625C12.415 9.25 12.25 9.415 12.25 9.625V10.375C12.25 10.585 12.415 10.75 12.625 10.75Z" fill="white"/>
</g>
<defs>
<clipPath id="clip0_44_45">
<rect width="14" height="14" fill="white"/>
</clipPath>
</defs>
</svg>
