<?xml version="1.0" standalone="no"?>
<!DOCTYPE svg PUBLIC "-//W3C//DTD SVG 20010904//EN"
 "http://www.w3.org/TR/2001/REC-SVG-20010904/DTD/svg10.dtd">
<svg version="1.0" xmlns="http://www.w3.org/2000/svg"
 width="30.000000pt" height="30.000000pt" viewBox="0 0 30.000000 30.000000"
 preserveAspectRatio="xMidYMid meet">

<g transform="translate(0.000000,30.000000) scale(0.100000,-0.100000)"
fill="#000000" stroke="none">
<path d="M190 230 c0 -24 -4 -30 -22 -30 -46 0 -106 -39 -127 -84 -21 -43 -27
-76 -13 -76 4 0 15 18 24 40 13 31 27 45 60 60 62 28 78 26 78 -10 0 -16 4
-30 8 -30 4 0 26 18 47 40 l39 40 -39 40 c-21 22 -43 40 -47 40 -4 0 -8 -13
-8 -30z"/>
</g>
</svg>
