<?xml version="1.0" standalone="no"?>
<!DOCTYPE svg PUBLIC "-//W3C//DTD SVG 20010904//EN"
 "http://www.w3.org/TR/2001/REC-SVG-20010904/DTD/svg10.dtd">
<svg version="1.0" xmlns="http://www.w3.org/2000/svg"
 width="32.000000pt" height="32.000000pt" viewBox="0 0 32.000000 32.000000"
 preserveAspectRatio="xMidYMid meet">

<g transform="translate(0.000000,32.000000) scale(0.100000,-0.100000)"
fill="#000000" stroke="none">
<path d="M70 205 l0 -85 90 0 90 0 0 85 0 85 -90 0 -90 0 0 -85z m160 35 c0
-27 -2 -29 -18 -21 -14 7 -25 6 -41 -5 -17 -13 -25 -13 -36 -4 -12 10 -18 10
-30 0 -13 -11 -15 -7 -15 24 l0 36 70 0 70 0 0 -30z m-12 -52 c7 -7 12 -20 12
-30 0 -16 -9 -18 -70 -18 -73 0 -89 12 -55 40 13 10 19 10 33 -4 24 -21 29
-20 35 4 6 22 27 26 45 8z"/>
<path d="M140 230 c0 -5 5 -10 10 -10 6 0 10 5 10 10 0 6 -4 10 -10 10 -5 0
-10 -4 -10 -10z"/>
<path d="M29 114 c-11 -14 -10 -19 10 -35 13 -11 34 -19 48 -19 32 0 21 16
-17 23 -27 6 -43 27 -20 27 6 0 10 5 10 10 0 15 -16 12 -31 -6z"/>
<path d="M260 120 c0 -5 5 -10 10 -10 25 0 6 -20 -27 -29 -54 -15 -74 -14 -67
4 9 21 -10 19 -31 -5 -17 -19 -17 -21 0 -40 21 -23 40 -27 32 -6 -4 10 6 16
38 21 24 3 54 14 67 24 19 16 20 21 9 35 -15 18 -31 21 -31 6z"/>
</g>
</svg>
