<svg width="14" height="14" viewBox="0 0 14 14" fill="none" xmlns="http://www.w3.org/2000/svg">
<path d="M0.25 3.0625C0.25 2.31658 0.546316 1.60121 1.07376 1.07376C1.60121 0.546316 2.31658 0.25 3.0625 0.25H10.9375C11.6834 0.25 12.3988 0.546316 12.9262 1.07376C13.4537 1.60121 13.75 2.31658 13.75 3.0625V10.9375C13.75 11.6834 13.4537 12.3988 12.9262 12.9262C12.3988 13.4537 11.6834 13.75 10.9375 13.75H3.0625C2.31658 13.75 1.60121 13.4537 1.07376 12.9262C0.546316 12.3988 0.25 11.6834 0.25 10.9375V3.0625ZM3.0625 1.375C2.61495 1.375 2.18572 1.55279 1.86926 1.86926C1.55279 2.18572 1.375 2.61495 1.375 3.0625V4.1875H4.1875V1.375H3.0625ZM5.3125 1.375V4.1875H8.6875V1.375H5.3125ZM5.3125 5.3125V8.6875H8.6875V5.3125H5.3125ZM4.1875 8.6875V5.3125H1.375V8.6875H4.1875ZM1.375 9.8125V10.9375C1.375 11.3851 1.55279 11.8143 1.86926 12.1307C2.18572 12.4472 2.61495 12.625 3.0625 12.625H4.1875V9.8125H1.375ZM5.3125 9.8125V12.625H8.6875V9.8125H5.3125ZM9.8125 9.8125V12.625H10.9375C11.3851 12.625 11.8143 12.4472 12.1307 12.1307C12.4472 11.8143 12.625 11.3851 12.625 10.9375V9.8125H9.8125ZM12.625 8.6875V5.3125H9.8125V8.6875H12.625ZM9.8125 1.375V4.1875H12.625V3.0625C12.625 2.61495 12.4472 2.18572 12.1307 1.86926C11.8143 1.55279 11.3851 1.375 10.9375 1.375H9.8125Z" fill="#0F0E0E"/>
</svg>
