<svg width="24" height="24" viewBox="0 0 24 24" fill="none" xmlns="http://www.w3.org/2000/svg">
<circle cx="12" cy="12" r="12" fill="#0F0E0E"/>
<path d="M17.0625 9.75H14.25V10.875H17.0625C17.2117 10.875 17.3548 10.9343 17.4602 11.0398C17.5657 11.1452 17.625 11.2883 17.625 11.4375V12.5625H15.375C14.9276 12.5629 14.4986 12.7409 14.1823 13.0573C13.8659 13.3736 13.6879 13.8026 13.6875 14.25V14.8125C13.6879 15.2599 13.8659 15.6889 14.1823 16.0052C14.4986 16.3216 14.9276 16.4996 15.375 16.5H18.75V11.4375C18.7496 10.9901 18.5716 10.5611 18.2552 10.2448C17.9389 9.92838 17.5099 9.75045 17.0625 9.75V9.75ZM15.375 15.375C15.2258 15.375 15.0827 15.3157 14.9773 15.2102C14.8718 15.1048 14.8125 14.9617 14.8125 14.8125V14.25C14.8125 14.1008 14.8718 13.9577 14.9773 13.8523C15.0827 13.7468 15.2258 13.6875 15.375 13.6875H17.625V15.375H15.375ZM12 16.5H13.125L9.75 6.9375H8.625L5.25 16.5H6.375L7.32787 13.6875H11.0477L12 16.5ZM7.70869 12.5625L9.11325 8.41631H9.26287L10.6669 12.5625H7.70869Z" fill="white"/>
</svg>
