<svg width="14" height="11" viewBox="0 0 14 11" fill="none" xmlns="http://www.w3.org/2000/svg">
<g clip-path="url(#clip0_409_25)">
<path d="M12.0625 3.75H9.25V4.875H12.0625C12.2117 4.875 12.3548 4.93426 12.4602 5.03975C12.5657 5.14524 12.625 5.28832 12.625 5.4375V6.5625H10.375C9.92758 6.56295 9.49862 6.74088 9.18225 7.05725C8.86588 7.37362 8.68795 7.80258 8.6875 8.25V8.8125C8.68795 9.25992 8.86588 9.68888 9.18225 10.0052C9.49862 10.3216 9.92758 10.4996 10.375 10.5H13.75V5.4375C13.7496 4.99008 13.5716 4.56112 13.2552 4.24475C12.9389 3.92838 12.5099 3.75045 12.0625 3.75ZM10.375 9.375C10.2258 9.375 10.0827 9.31574 9.97725 9.21025C9.87176 9.10476 9.8125 8.96168 9.8125 8.8125V8.25C9.8125 8.10082 9.87176 7.95774 9.97725 7.85225C10.0827 7.74676 10.2258 7.6875 10.375 7.6875H12.625V9.375H10.375ZM7 10.5H8.125L4.75 0.9375H3.625L0.25 10.5H1.375L2.32787 7.6875H6.04769L7 10.5ZM2.70869 6.5625L4.11325 2.41631H4.26288L5.66687 6.5625H2.70869Z" fill="black"/>
</g>
<defs>
<clipPath id="clip0_409_25">
<rect width="14" height="11" fill="white"/>
</clipPath>
</defs>
</svg>
